<svg width="24" height="24" viewBox="0 0 24 24" fill="none" xmlns="http://www.w3.org/2000/svg">
<path d="M5 22H19C19.7956 22 20.5587 21.6839 21.1213 21.1213C21.6839 20.5587 22 19.7956 22 19V10C22 9.20435 21.6839 8.44129 21.1213 7.87868C20.5587 7.31607 19.7956 7 19 7H17V6C17 4.67392 16.4732 3.40215 15.5355 2.46447C14.5979 1.52678 13.3261 1 12 1C10.6739 1 9.40215 1.52678 8.46447 2.46447C7.52678 3.40215 7 4.67392 7 6V7H5C4.20435 7 3.44129 7.31607 2.87868 7.87868C2.31607 8.44129 2 9.20435 2 10V19C2 19.7956 2.31607 20.5587 2.87868 21.1213C3.44129 21.6839 4.20435 22 5 22ZM9 6C9 5.20435 9.31607 4.44129 9.87868 3.87868C10.4413 3.31607 11.2044 3 12 3C12.7956 3 13.5587 3.31607 14.1213 3.87868C14.6839 4.44129 15 5.20435 15 6V7H9V6ZM4 10C4 9.73478 4.10536 9.48043 4.29289 9.29289C4.48043 9.10536 4.73478 9 5 9H19C19.2652 9 19.5196 9.10536 19.7071 9.29289C19.8946 9.48043 20 9.73478 20 10V19C20 19.2652 19.8946 19.5196 19.7071 19.7071C19.5196 19.8946 19.2652 20 19 20H5C4.73478 20 4.48043 19.8946 4.29289 19.7071C4.10536 19.5196 4 19.2652 4 19V10ZM10 14.5C10 14.1044 10.1173 13.7178 10.3371 13.3889C10.5568 13.06 10.8692 12.8036 11.2346 12.6522C11.6001 12.5009 12.0022 12.4613 12.3902 12.5384C12.7781 12.6156 13.1345 12.8061 13.4142 13.0858C13.6939 13.3655 13.8844 13.7219 13.9616 14.1098C14.0387 14.4978 13.9991 14.8999 13.8478 15.2654C13.6964 15.6308 13.44 15.9432 13.1111 16.1629C12.7822 16.3827 12.3956 16.5 12 16.5C11.4696 16.5 10.9609 16.2893 10.5858 15.9142C10.2107 15.5391 10 15.0304 10 14.5Z" fill="white" fill-opacity="0.5"/>
</svg>
