<svg xmlns="http://www.w3.org/2000/svg"><symbol id="lock-square" viewBox="0 0 24 24"><path d="M5 22h14a3 3 0 0 0 3-3v-9a3 3 0 0 0-3-3h-2V6A5 5 0 0 0 7 6v1H5a3 3 0 0 0-3 3v9a3 3 0 0 0 3 3zM9 6a3 3 0 1 1 6 0v1H9V6zm-5 4a1 1 0 0 1 1-1h14a1 1 0 0 1 1 1v9a1 1 0 0 1-1 1H5a1 1 0 0 1-1-1v-9zm6 4.5a2 2 0 1 1 4 0 2 2 0 0 1-4 0z" fill="#fff" fill-opacity=".5"/></symbol><symbol id="user" viewBox="0 0 24 24"><path d="M12 11a5 5 0 1 0 0-10 5 5 0 0 0 0 10zm0-8a3 3 0 1 1 0 6 3 3 0 0 1 0-6zM4 23h16a1 1 0 0 0 1-1v-4a5.006 5.006 0 0 0-5-5H8a5.006 5.006 0 0 0-5 5v4a1 1 0 0 0 1 1zm1-5a3 3 0 0 1 3-3h8a3 3 0 0 1 3 3v3H5v-3z" fill="#fff"/></symbol></svg>